<?xml version="1.0" standalone="no"?>
<!DOCTYPE svg PUBLIC "-//W3C//DTD SVG 1.1//EN" "http://www.w3.org/Graphics/SVG/1.1/DTD/svg11.dtd" >
<svg xmlns="http://www.w3.org/2000/svg">
<metadata>
Created by FontForge 20120731 at Mon May 22 19:01:00 2017
 By admin
</metadata>
<defs>
<font id="iconfont" horiz-adv-x="1024" >
  <font-face 
    font-family="iconfont"
    font-weight="500"
    font-stretch="normal"
    units-per-em="1024"
    panose-1="2 0 6 3 0 0 0 0 0 0"
    ascent="896"
    descent="-128"
    x-height="792"
    bbox="0 -224 1375 896"
    underline-thickness="0"
    underline-position="0"
    unicode-range="U+0078-F0343"
  />
<missing-glyph 
 />
    <glyph glyph-name=".notdef" 
 />
    <glyph glyph-name=".null" horiz-adv-x="0" 
 />
    <glyph glyph-name="nonmarkingreturn" horiz-adv-x="341" 
 />
    <glyph glyph-name="x" unicode="x" horiz-adv-x="1001" 
d="M281 543q-27 -1 -53 -1h-83q-18 0 -36.5 -6t-32.5 -18.5t-23 -32t-9 -45.5v-76h912v41q0 16 -0.5 30t-0.5 18q0 13 -5 29t-17 29.5t-31.5 22.5t-49.5 9h-133v-97h-438v97zM955 310v-52q0 -23 0.5 -52t0.5 -58t-10.5 -47.5t-26 -30t-33 -16t-31.5 -4.5q-14 -1 -29.5 -0.5
t-29.5 0.5h-32l-45 128h-439l-44 -128h-29h-34q-20 0 -45 1q-25 0 -41 9.5t-25.5 23t-13.5 29.5t-4 30v167h911zM163 247q-12 0 -21 -8.5t-9 -21.5t9 -21.5t21 -8.5q13 0 22 8.5t9 21.5t-9 21.5t-22 8.5zM316 123q-8 -26 -14 -48q-5 -19 -10.5 -37t-7.5 -25t-3 -15t1 -14.5
t9.5 -10.5t21.5 -4h37h67h81h80h64h36q23 0 34 12t2 38q-5 13 -9.5 30.5t-9.5 34.5q-5 19 -11 39h-368zM336 498v228q0 11 2.5 23t10 21.5t20.5 15.5t34 6h188q31 0 51.5 -14.5t20.5 -52.5v-227h-327z" />
    <glyph glyph-name="shanchu" unicode="&#x3474;" horiz-adv-x="1000" 
d="M415 -1q16 0 28 11.5t12 28.5v477q0 16 -12 28t-28 12t-28 -12t-12 -28v-477q0 -17 12 -28.5t28 -11.5zM912 675h-338v40q0 16 -11.5 27.5t-28.5 11.5h-40q-16 0 -27.5 -11.5t-11.5 -27.5v-40h-338q-17 0 -28.5 -11.5t-11.5 -28t11.5 -28.5t28.5 -12h59v-636
q0 -32 23.5 -55.5t56.5 -23.5h517q33 0 56 23.5t23 55.5v636h60q16 0 28 12t12 28.5t-12 28t-28 11.5zM773 -1q0 -16 -12 -28t-28 -12h-437q-17 0 -28.5 12t-11.5 28v596h517v-596v0zM613.5 -1q16.5 0 28 11.5t11.5 28.5v477q0 16 -11.5 28t-28 12t-28 -12t-11.5 -28v-477
q0 -17 11.5 -28.5t28 -11.5z" />
    <glyph glyph-name="fenxiang" unicode="&#xe62e;" 
d="M797 207q-47 0 -85.5 -25t-57.5 -65l-268 53q-3 22 -12 43l179 193q31 -14 64 -14q66 0 113 47t47 112.5t-47 112.5t-112.5 47t-112.5 -47t-47 -113q0 -49 28 -89l-167 -181q-41 29 -91 29q-66 0 -113 -46.5t-47 -112.5t47 -112.5t113 -46.5q47 0 86 25.5t58 66.5
l267 -52q6 -61 51.5 -102t106.5 -41q66 0 112.5 46.5t46.5 112.5t-46.5 112.5t-112.5 46.5zM617.5 624q30.5 0 51.5 -21t21 -51.5t-21 -51.5t-51.5 -21t-51.5 21t-21 51.5t21 51.5t51.5 21zM228 79q-30 0 -51.5 21t-21.5 51t21.5 51.5t51.5 21.5t51 -21.5t21 -51.5t-21 -51
t-51 -21zM797 -25q-30 0 -51.5 21.5t-21.5 51.5t21.5 51t51.5 21t51.5 -21t21.5 -51t-21.5 -51.5t-51.5 -21.5z" />
    <glyph glyph-name="icon" unicode="&#xe601;" 
d="M902 356l-313 326q-31 31 -74 31t-73 -31l-314 -326q-38 -40 -23 -75q15 -33 54 -33h46v-251q0 -44 28.5 -77t70.5 -33h134v265q0 4 -0.5 12t0 10t1 7.5t2 7t4.5 4t7 3.5t11 1h105q6 0 10.5 -1t7 -3.5t4.5 -4t2.5 -7t0.5 -7.5v-10v-12v-265h133q43 0 71 33t28 77v251h46
q40 0 54 33q16 35 -23 75zM871 300h-97v-303q0 -22 -13.5 -40t-34.5 -18h-82v213q0 96 -76 96h-105q-77 0 -77 -96v-213h-82q-21 0 -34 18t-13 40v303h-98l-1 2l-1 2q8 14 10 16l313 326q15 16 36 15q19 1 34 -15l314 -326q1 -2 10 -16q-1 0 -1.5 -2t-1.5 -2z" />
    <glyph glyph-name="shouji" unicode="&#xe6be;" 
d="M704 800h-384q-53 0 -90.5 -37.5t-37.5 -90.5v-768q0 -53 37.5 -90.5t90.5 -37.5h384q53 0 90.5 37.5t37.5 90.5v768q0 53 -37.5 90.5t-90.5 37.5zM512 -160q-26 0 -45 19t-19 45t19 45t45 19t45 -19t19 -45t-19 -45t-45 -19zM768 32h-512v640q0 27 19 45.5t45 18.5h384
q27 0 45.5 -18.5t18.5 -45.5v-640z" />
    <glyph glyph-name="yuandangao" unicode="&#xe61b;" 
d="M512 300zM0 300h1024h-1024v0zM760 -55q-33 -4 -76 -11q-6 -1 -22.5 -4t-25.5 -4q21 7 30 14q2 2 1 5t-3 3q-5 1 -14 0t-10 -1q-3 -1 -9 -2.5l-6 -1.5q-4 0 -11 -1.5t-10 -2.5q2 2 4 3q3 1 2 4.5t-4 3.5q-14 0 -76 -13q-3 0 -8 -1q15 5 24 11q2 2 2 5t-3 4q-7 1 -26 -5
q-1 -1 -49 -11q-8 -2 -24.5 -5.5t-23.5 -5.5q-2 0 -7 -1l10 4q3 1 9.5 4t10.5 4q9 3 11 6q5 6 -2 8q-4 1 -12 -1.5t-10 -2.5q-3 0 -10.5 -2t-8.5 -2q-15 -4 -25 -6q-34 -10 -36 -10q20 7 42 13q4 1 3.5 5t-4.5 4q-9 0 -29 -4l-15 -3t-16 -3h1q2 3 0.5 6t-5.5 2
q-23 -5 -36 -11q-21 -9 -26 -13q-2 -2 -1.5 -4.5t3.5 -3.5q4 -1 19 3q2 1 33 8q4 1 11 3q-5 -3 -10 -5q-5 -3 -1 -7t19 -2q11 2 32 8q25 6 36 9q-11 -6 -17 -8q-11 -5 -13 -6q-2 -2 -1.5 -4.5t2.5 -3.5q8 -4 27 3q3 1 6.5 2t8 1.5t7.5 1.5q4 1 12 2.5t12 2.5q5 1 11 2.5
t13 3t11 2.5q-1 -1 -16 -7t-23 -9q-4 -1 -3 -5.5t5 -3.5q15 3 41.5 9.5t37.5 9.5q5 1 14 3t16 3.5t14 2.5q-3 0 -5 -1q-7 -2 -18.5 -7t-16.5 -7t-3.5 -6t5.5 -3q13 2 36 8t28 8l10 2t11.5 2t10.5 2q1 0 5.5 1t6.5 2q-4 -2 -11.5 -4.5t-13.5 -5t-11 -5.5q-3 -2 -2 -5.5
t5 -3.5q12 0 69 10q46 7 81 11q3 1 4.5 3.5t0 4.5t-4.5 2zM312 -64q6 2 14 4v0q-6 -2 -14 -4zM234 97q-17 15 -31 38q-10 16 -13 25q-2 7 -3 13q0 1 1 5t1 5v2q-4 2 -4 -2q-2 -15 0 -21q2 -8 11 -23q15 -27 35 -45q2 -3 3 1q1 1 0 2zM268 108q-20 15 -36 35q-18 23 -11 33
q1 1 0 2q-2 2 -3 0q-8 -10 6 -31q15 -23 42 -43q1 -1 2 0q2 2 0 4zM279 140q-17 13 -23 31q-2 3 -4 -1q6 -19 24 -33q2 -1 3 3zM765 190q0 -19 -20 -40q-3 -2 1 -3q1 -1 2 0q21 22 22 43q0 2 -3 2q-1 0 -2 -2zM807 180q-10 -19 -24 -36q0 -2 3 -3q15 18 24 37q1 2 0 3
q-2 1 -3 -1zM830 160q-9 -22 -21 -33q-9 -9 -30 -21q-1 -2 3 -4q21 13 32 24q10 9 20 33q1 2 -1 3q-2 0 -3 -2zM327 102q-14 34 -31 53q-2 2 -3 -1q-1 -1 0 -2q16 -18 30 -51q2 -3 4 1zM359 100q-1 3 -2.5 9t-3.5 9q-1 3 -5.5 11.5t-5.5 13.5q-1 3 -4 -1q2 -8 8 -18
q2 -5 5 -14t4 -11q2 -3 4 1zM412 90q-16 17 -16 40q0 2 -3 2q-2 -1 -2 -2q1 -25 18 -43q3 -2 4 1q0 1 -1 2zM458 83q-8 12 -11 23q-1 4 -4 -1q3 -12 11 -24q2 -2 4 2zM505 92q-2 3 -9 8q-6 3 -10 15q-2 3 -4 -1q3 -9 7 -14q2 -2 6.5 -5t5.5 -5q2 -2 4 2zM560 82l-10 12
q-4 5 -5 7t-1 9q0 2 -2 2t-2 -2q0 -11 5 -16q0 -1 5 -7.5t8 -8.5q2 -1 3 1t-1 3zM591 82q-2 2 -4.5 6t-3.5 6q-1 1 -2.5 4t-1.5 4q-4 8 -5 11q-2 3 -4 -1q5 -13 9 -20q6 -10 9 -13q2 -3 3 0q1 2 0 3zM623 91q-4 2 -6.5 5t-5 9.5t-3.5 7.5q-2 2 -3 -2q0 -2 2 -6.5t3.5 -7
t4 -5.5t5.5 -5q2 -1 3 0q2 2 0 4zM651 98q-6 10 -6 23q0 2 -2 2t-2 -2q0 -14 7 -25q2 -2 3 2zM681 107q-4 4 -6 9q-1 1 -2.5 5t-1.5 5q-2 2 -4 -2q0 -1 1.5 -5t2.5 -5t2 -3t1 -3q2 -1 4 -3.5t4 0.5q0 1 -1 2zM711 120q-1 1 -3 2q0 1 -0.5 2t-1.5 1l-5 10q-2 2 -4 -2
q4 -8 6 -10q0 -1 0.5 -1.5t0.5 -1.5q1 0 2.5 -1t1.5 -2q2 0 3 3zM722 150q-2 2 -4 -2q4 -8 4 -14q1 -2 3 -2t2 2q0 7 -5 16zM330 514q-13 -3 -25 -20q-2 -2 -9 -10t-10.5 -14t-4.5 -12q0 -2 2 -3q2 0 2 2q1 4 3.5 8.5t5 7.5t7 8.5t5.5 7.5q15 19 25 21q3 1 -1 4z
M346.5 512.5q-3.5 0.5 -13.5 -7.5q-9 -7 -19 -22q-3 -4 -10.5 -13.5t-11.5 -15.5t-8 -15t-6 -17q0 -2 2 -3q2 0 2 2q2 7 5.5 14.5t6.5 12t9 13t9 11.5q13 20 19 25q10 12 15 11q1 0 2 1q2 3 -1.5 3.5zM365 506q-8 -5 -17.5 -13.5t-13.5 -13.5t-15 -19.5t-12 -15.5
q0 -1 -2.5 -4l-5 -6t-6 -8t-5.5 -8.5t-4.5 -7.5t-2 -6.5t2.5 -4.5q1 -1 2 1q2 2 0 3t10 18t19 26q2 3 11 14.5t13 16.5t12.5 12.5t15.5 12.5q2 2 -2 3zM387 505q-9 -6 -17 -14t-17.5 -19t-14.5 -16q-32 -32 -38 -58q-1 -3 1 -3q2 -1 3 1q6 26 39 60q5 5 14 14.5t16.5 17
t15.5 13.5q2 2 -2 4zM381 486q-19 -12 -35 -38q-2 -3 -7.5 -11.5t-8.5 -13t-6.5 -12t-5.5 -13.5q0 -3 2 -3q2 -1 3 1q4 16 25 47q21 30 35 40q2 2 -2 3zM369 448q-16 -22 -20 -30l-18 -36q-1 -2 2 -3q2 0 2 2q2 3 17 35q4 7 20 30q2 2 0 3t-3 -1zM378 431q-13 -10 -19 -21
q-8 -13 -15 -31q-1 -2 2 -3q2 0 2 2q4 9 13 28q5 10 20 22q2 3 -1 4q-1 0 -2 -1zM388 420q-6 -6 -19 -31q-13 -23 -15 -33q0 -2 2 -3q2 0 2 2q2 11 14 32q15 26 19 30q2 2 -1 4q-1 0 -2 -1zM399 403q-9 -8 -16 -24q-10 -26 -12 -33q0 -2 2 -3q2 0 3 2q0 2 9 27q8 20 17 28
q3 2 -1 3q-1 1 -2 0zM422 403q-18 -20 -35 -59q0 -2 1 -3q2 -2 3 0q17 39 34 59q0 2 -3 3zM442 401q-10 -14 -16 -28q-1 -3 -4 -8.5t-5 -10t-3 -8.5q0 -2 2 -3q2 0 3 2q1 5 5 12.5t5 10.5q6 15 17 31q1 1 -1 2q-2 2 -3 0zM448 385q-12 -22 -16 -35q-1 -2 1 -2q2 -1 3 1
q4 12 15 34q1 2 0 3q-2 1 -3 -1zM479 394q-5 -10 -16.5 -28.5t-14.5 -24.5q-1 -2 0 -3q2 -1 3 1q4 6 15 24t17 29q1 1 -1 2q-2 2 -3 0zM496 390q-9 -6 -15 -21q-14 -28 -18 -35q0 -2 1 -3q2 -2 3 0q10 20 14 30q9 20 17 25q2 3 -2 4zM510 388q-12 -12 -22 -33q-3 -5 -7 -18
q-5 -17 -5 -19t2 -2t2 2v2v0l5 16q4 12 8 20q8 18 20 29q2 3 -1 4q-2 0 -2 -1zM534 391q-11 -9 -23 -36q-2 -2 -8 -16t-10 -21q0 -2 1 -3q2 -1 3 1q11 21 14 28q11 32 26 44q3 2 -1 4q-1 0 -2 -1zM551 394q0 -1 -13 -32q-12 -29 -16 -34q-1 -1 0 -2t2 -1h1q4 0 2 3
q4 5 11 22q16 40 17 42q0 1 -1 2q-2 2 -3 0zM570 401q-8 0 -9 -11q-1 -7 -2.5 -14t-4 -16t-3.5 -14q-1 -2 1 -3q2 0 3 2l8 31l1 6t2 10t3.5 4t2.5 3q0 1 -2 2zM614 493q-6 -7 -19 -33q-1 -2 1 -3q2 -2 3 0q13 26 18 33q0 2 -3 3zM637 503q-15 -18 -37 -69q-8 -18 -14 -37
q-2 -7 -7 -23q-1 -2 -3.5 -9.5t-3.5 -11.5q0 -2 2 -3q2 0 2 2l3 9t3 8q3 11 6 19q7 23 15 43q22 51 37 69q0 2 -3 3zM660 506q-9 -10 -16 -22t-15 -30.5t-11 -23.5q-8 -18 -16 -42q-4 -15 -4 -46q0 -2 2 -2t2 2q0 27 3 41q6 23 17 44q3 6 11 24.5t14.5 30.5t15.5 21
q2 2 -1 4q-1 0 -2 -1zM677 508q-3 -4 -21 -44q-9 -22 -22 -48q-26 -53 -26 -88q0 -2 2 -2t2 2q1 33 29 93q10 21 21 44q16 37 19 41q1 2 -1 3t-3 -1zM696 506q-9 -12 -25 -43q-13 -27 -22 -48q-2 -8 -9 -23.5t-11 -24.5t-7.5 -23t-3.5 -26q0 -2 2 -2t2 2q0 15 4.5 30
t14.5 37t13 29q6 17 23 51q14 27 22 38q1 2 0 3q-2 1 -3 0zM698 485q-15 -22 -35 -78q-3 -7 -8 -22t-8 -22q-9 -25 -11 -41q0 -1 1 -1q3 -2 4 1q1 15 12 44q2 7 6.5 20t7.5 20q20 54 35 77q1 2 0 3q-2 1 -4 -1zM717 483q-3 -5 -12 -25.5t-13 -31.5l-6 -15t-6 -16
q-1 -4 -5 -15q-5 -14 -6 -16q-3 -2 1 -3q1 -1 2 0q2 2 7 18q3 7 8 20.5t7 17.5q4 13 14.5 37.5t12.5 27.5q1 2 -1 3q-2 0 -3 -2zM730 456q-4 -8 -10.5 -22.5t-7.5 -19.5q-13 -30 -18 -36q-1 -2 0 -3q2 -1 4 1q4 6 19 39q2 5 8 19l9 21q1 2 -2 3q-2 0 -2 -2zM735 435
q-16 -48 -25 -66q-1 -1 0 -2t2 -1h1h1q1 1 1 2v0.5v0.5v1q9 18 25 64q0 2 -2 2q-2 1 -3 -1zM741 409q-2 -4 -6 -13.5t-7 -14.5q0 -2 1 -3q2 -1 3 1q2 4 6.5 13.5t6.5 14.5q1 2 -1 3q-2 2 -3 -1zM459 497q-2 0 -3.5 -1.5t-2.5 -3.5t-2 -5t-2 -4q-2 -5 -8.5 -15t-8.5 -16
q-1 -2 1 -3q2 0 3 2q2 5 7.5 14t6.5 10q0 1 2 5.5t4 8t3 3.5q3 0 3 2q-1 2 -3 3zM486 512q0 2 -2 2q-2 -1 -2 -2q0 -27 -4 -37q-1 -1 0 -2q2 -2 3 0q5 11 5 39zM509 508q-2 3 -4 -1q1 -4 5.5 -14.5t7 -17.5t2.5 -15q1 -2 3 -2t2 2q-1 8 -16 48zM339 601q-5 -6 -9 -20
q-2 -5 -6.5 -15.5t-5.5 -11.5q0 -2 2 -3q2 0 3 2q1 3 4.5 11t5.5 12q1 2 2 6.5t3 8.5t4 6q0 2 -3 4zM347 584q-4 -3 -9 -19q-2 -5 -6.5 -15.5t-5.5 -14.5q-1 -2 1 -2q2 -1 3 1q8 22 9 25q2 2 4 10t6 11q2 2 -2 4zM364 590q-2 -6 -6.5 -18t-7.5 -18l-12 -30q0 -2 2 -3
q2 0 3 1q1 6 12 33q3 6 7 17t6 16q1 2 -1 3q-2 0 -3 -1zM389 591q-7 -12 -16 -35q-16 -42 -17 -43.5t0 -2.5q2 -1 4 1q3 6 7.5 18.5t5.5 13.5q16 39 20 46q0 2 -1 3q-2 2 -3 -1zM399 591q-1 -2 -2.5 -6.5t-2.5 -6.5q-3 -14 -5 -20q-2 -9 -8 -25.5t-7 -18.5q0 -2 2 -3
q2 0 2 1q2 5 7 19t7.5 22t5.5 20q0 3 2 8.5t3 8.5q0 2 -2 2q-2 1 -2 -1zM420 591q-7 -5 -12 -20q-1 -4 -3.5 -10.5t-4.5 -12t-3 -10.5q0 -2 2 -3q2 0 2 2q2 7 8 24q1 2 3 8.5t4 10.5t6 7q2 2 -2 4zM432 593q-3 -7 -10 -35q-1 -2 1 -3q2 0 3 2q7 28 10 34q0 1 -1 3
q-2 1 -3 -1zM452 628q-1 -29 -19 -65q-1 -2 1 -3t3 1q18 37 19 67q0 2 -2 2t-2 -2zM465 610q-4 -7 -9.5 -22.5t-9.5 -23.5q-1 -1 1 -3q2 -1 3 1q4 8 9.5 23.5t9.5 22.5q0 2 -1 3q-2 1 -3 -1zM469 591q-3 -17 -3 -28q0 -2 2 -2t2 2q0 11 3 27q0 2 -2 2q-2 1 -2 -1zM515 576
q0 -11 -4 -19q-1 -2 0 -3q2 -1 3 1q5 9 5 21q0 2 -2 2t-2 -2zM540 582v-8q0 -2 -0.5 -5t-0.5 -4.5t1 -1.5q3 -2 3 2q0 1 1 3.5t1 4.5v9q0 2 -2.5 2t-2.5 -2zM561 578v-28q0 -2 2 -2t2 2v28q0 2 -2 2t-2 -2zM598 542q-1 4 -4.5 11.5t-5.5 13.5t-2 12q0 2 -2 2t-2 -2
q0 -6 2 -12t5 -14.5t5 -11.5q1 -3 4 1zM615 593q0 -4 -0.5 -12t-0.5 -12q0 -2 2 -2t2 2q0 4 0.5 12t0.5 12q0 3 -2 2q-2 0 -2 -2zM631 597q-2 -3 -3 -16q-1 -14 -7 -21q0 -2 3 -3q3 4 7 16q1 2 1 8q1 10 3 14q1 2 -1 3t-3 -1zM645 595l-8 -44q-1 -2 1 -3q2 0 3 2
q1 6 2.5 13.5t3 16.5t2.5 14q1 2 -1 3q-2 0 -3 -2zM659 592q0 -7 -2 -19.5t-2 -19.5q0 -2 2 -2t2 2q1 7 3 19.5t2 19.5q0 2 -3 2q-2 0 -2 -2zM671 575q-3 -17 -4 -20q-1 -2 1 -2q2 -1 3 1q1 3 4 20q1 2 -2 3q-2 0 -2 -2zM593 655q0 -23 -2 -34q-1 -2 1 -3q2 0 3 2q3 12 3 35
q0 2 -2.5 2t-2.5 -2zM616 638v-26q0 -2 2.5 -2t2.5 2v26q0 2 -2.5 2t-2.5 -2zM605 517v-13q0 -2 2 -2t2 2v13q0 2 -2 2t-2 -2zM618 524q-2 -5 -2 -15q0 -2 2.5 -2t2.5 2q0 9 1 13q1 3 -1 3q-2 1 -3 -1zM625 529v-19q0 -2 2 -2t2 2v19q0 2 -2 2t-2 -2zM639 517q1 0 0.5 0.5
t-1 2t-1.5 5.5q0 5 -1 10q0 2 -2 2q-2 -1 -2 -2q0 -24 9 -23q3 2 -2 5zM652 522q-3 2 -3 17q0 2 -2 2t-2 -2q0 -17 4 -20q2 -1 3 3zM666 524q-1 2 -1 16q0 3 -2 2q-2 0 -2 -2q0 -15 2 -18q2 -2 3 2zM672 536v-1q0 -3 2.5 -3t2.5 3v1q0 2 -2.5 2t-2.5 -2zM697 546q-2 3 -3 -1
v-2q1 -1 0 -1q0 -2 3 -3q4 3 0 7zM446 547v-18q0 -2 2 -2t2 2v18q0 3 -2 2q-2 0 -2 -2zM466 543q0 -11 -1 -17q-1 -2 1 -2q2 -1 3 1q1 7 1 18q0 2 -2 2t-2 -2zM493 543q0 2 -2 2t-2 -2q0 -3 -1.5 -8.5t-1.5 -6.5v-14q0 -2 2 -2t2 2q0 12 1 15q0 1 1 6t1 8zM517 528
q-1 3 -1 12q0 2 -2 2t-2 -2q0 -10 2 -14q1 -2 3 2zM327 361q0 1 -1 2q-3 2 -3 -2q-2 -12 -2 -74q0 -48 2 -78q0 -2 2 -2t2 2q-1 30 -2 78q0 62 2 74zM367 275q0 2 -2 2t-2 -2q0 -6 0.5 -18t0.5 -18q0 -2 3 -2q2 0 1 2q0 6 -0.5 18t-0.5 18zM442 157q-2 5 -2 21v10.5v12v9.5
q0 7 -1.5 20.5t-1.5 24.5t4 20q1 1 0 2q-2 2 -3 0q-3 -5 -4 -10.5t-1 -13v-11t1.5 -13t1.5 -11.5v-36q0 -22 1 -26q2 -3 5 1zM482 188q0 2 -3 2q-2 -1 -2 -2v-53q1 -2 3 -1t2 3q-1 3 0 51zM632 319q-1 3 -4 -2q11 -55 -4 -129q-1 -2 1 -3q2 0 3 2q15 75 4 132zM573 274
q1 1 0 1q-3 2 -4 -1q-2 -4 0 -30t2 -29q0 -2 2 -2t2 2q0 3 -2 29t0 30zM323 159q-12 35 -12 44q0 2 -2 2t-2 -2q0 -9 11 -45q2 -3 5 1zM353 150q-2 5 -6 13.5t-6 12.5q-2 3 -4 -1q2 -5 6 -13.5t5 -12.5q2 -3 5 1zM390 144q-6 15 -10 21q-3 2 -4 -2q4 -6 10 -20q2 -3 4 1z
M448 127l-8 10t-12 14q-2 3 -4 -1q0 -1 1 -2q3 -3 6.5 -7t7.5 -9.5t6 -8t4 1.5q0 1 -1 2zM510 116q-5 10 -11 19q-1 1 -5.5 5t-4.5 7q-1 2 -3 2q-2 -1 -1 -3q0 -4 8 -12q6 -5 13 -20q2 -2 4 2zM546 125q-2 3 -5.5 10.5t-6.5 10.5q-2 2 -3 -2q2 -3 5.5 -10.5t5.5 -10.5
q2 -2 4 2zM589 120q-5 15 -13 31q-2 2 -4 -3q8 -15 13 -29q2 -3 4 1zM626 132q-5 14 -10 20q-2 2 -4 -2q5 -6 10 -20q2 -3 4 2zM673 141q-3 4 -9 10q0 1 -5 5.5t-7 7.5q-2 1 -4 -3q3 -4 11 -11t11 -12q2 -1 3 3zM701 156q-2 2 -6 10t-8 11q-2 0 -3 -3q4 -3 8 -10.5t5 -9.5
q2 -2 4 2zM716 172q-4 8 -16 19q-1 2 -2.5 0.5t-0.5 -3.5q11 -11 16 -18q2 -2 3 2zM724 361q-1 -3 -11 -13q-3 -2 -6.5 -5t-8 -6.5t-6.5 -5.5q-3 -2 0 -3q2 -1 3 0q3 3 10.5 9t10.5 8q9 8 12 14q1 1 -1 2q-2 2 -3 0zM730 332q-2 -1 -3.5 -2.5t-3 -4l-1.5 -2.5
q-2 -3 -6.5 -10t-8.5 -11q-2 -2 1 -3q1 -1 2 0q6 6 12 16q8 12 9 13q3 1 -1 4zM730 290q-6 -2 -10 -9q-8 -15 -11 -19q-3 -2 1 -3q1 -1 2 0q4 5 9 15q6 11 10 12q3 2 -1 4zM728 260q-1 -2 -4.5 -6t-5.5 -6q0 -1 -1 -3t-2 -3t-2.5 -3.5t-2.5 -3.5q-1 -2 0 -3q2 -1 4 0l8 12
q1 3 5 8t5 6q1 2 0 3q-2 1 -4 -1zM734 228q-1 -2 -13 -19q-1 -2 -5 -8.5t-7 -9.5t1 -4q1 0 2 1t13 19q1 1 6 8.5t7 11.5q1 2 -1 3q-2 0 -3 -2zM733 241q-3 -6 -11 -15t-11 -13q-1 -2 1 -3t3 1q3 4 11 13.5t11 15.5q1 2 -2 3q-2 0 -2 -2zM733 208q-1 -3 -9 -14q-6 -7 -10 -13
q-1 -1 1 -2q2 -2 3 0q5 8 11.5 15.5t7.5 13.5q0 1 -1 1q-3 2 -3 -1zM733 179q-7 -7 -10 -11q-2 -2 -5 -7.5t-5 -7.5q0 -2 3 -3l8 12q2 4 12 14q3 2 -1 4q-1 0 -2 -1zM595 470q-4 13 -12 25q-1 1 -4.5 5.5t-5.5 7t-4 7t-2 7.5q0 5 -5.5 6t-7.5 -3q-15 -7 -58 -5q-29 1 -30 1
q-17 3 -20 9q0 2 -2 3q-2 3 -6 3.5t-6 -2.5q-7 -9 -13 -20t-9 -17.5t-9.5 -22.5t-8.5 -20q-8 -19 -2 -25q11 -13 34 -22q38 -15 48 -17q15 -2 56 -2q19 1 39.5 9t29.5 22q3 1 4 4q5 14 -6 47zM522 401q-48 -1 -83 14q-16 7 -34 17q-2 2 -3 5.5t0.5 7.5t2.5 7.5t3 8t3 5.5
q13 35 27 54q10 -12 45 -13q4 0 14.5 -0.5t16 -0.5t14 0.5t15.5 1.5t14 4q3 -9 13 -21q9 -12 15.5 -29.5t4.5 -30.5q-1 -1 -1 -2q-6 -14 -27 -20.5t-40 -7.5zM558 566q-8 0 -25 -6t-24 -7q-9 -1 -38 3q-6 1 -16 6t-15 6.5t-7 -3.5q-4 -1 -4 -6q0 -27 1 -30q0 -5 6 -5h1
q5 0 6.5 4.5t-1.5 6.5q-1 5 0 19q2 0 11 -4.5t15 -5.5q20 -4 34 -4q11 -1 32 5q3 0 10.5 3.5t11.5 3.5v-30q0 -6 6 -6t6 6v39q0 4 -3.5 5.5t-6.5 -0.5zM430 566q-5 -2 -8.5 -8t-5.5 -8q-8 -8 -21 -33q-13 -27 -13 -81q0 -6 7 -6h1q4 0 5.5 3.5t-0.5 6.5q0 41 10 66
q9 24 20 35q1 1 5 7t6 7q4 2 4 5.5t-3.5 5.5t-6.5 0zM609 499q0 2 -1 3q-1 6 -15 24q-14 19 -15 20.5t-3 4t-3.5 4.5t-1.5 4q0 4 -3.5 6t-6.5 0t-3 -6q0 -5 2.5 -9.5t7.5 -10.5t7 -9t7.5 -10t7.5 -11q1 -1 3 -5t4 -5q0 -12 -2 -32t-3 -27q0 -3 3 -5t6.5 0t3.5 5q1 7 2.5 27
t2.5 31v1zM405 648q-1 10 -4.5 22.5t-7.5 16.5q-8 5 -17 3.5t-16 -7.5l-2 -2q-4 -1 -3 -6q0 -3 6 -18t7 -19t4 -4.5t6 2t2 5.5q0 3 -2 8t-3 7t-3.5 8t-3.5 9l1 1q12 10 16 1q5 -11 7 -27q1 -4 4 -5.5t6 0t3 5.5zM481 660q-7 8 -21.5 9t-24.5 -1v4.5t-0.5 5t-1 3.5t-2.5 3.5
t-5 2.5q-6 3 -15.5 -4t-13.5 -14q-2 -4 0 -7t5.5 -3t5.5 3q1 1 4.5 3.5t6.5 4.5t3 3q0 -10 1 -13q1 -5 6 -5q3 0 11 0.5t13 0.5t12 -1q-1 -1 -3.5 -1.5t-3.5 -1.5q-13 -6 -34 -12q-6 -2 -4 -8q2 -10 10 -18q7 -9 10 -12q-2 2 -3.5 2.5t-3 0.5t-4 0.5t-5.5 0.5
q-5 1 -12.5 7.5t-12.5 6.5q-7 0 -19 -13q-7 -7 -22 -18q-1 -1 0 6v3q0 2 1 8t1 10.5t-3 7.5q-2 2 -5.5 2.5t-7 0.5t-9 -0.5t-7.5 -0.5q21 15 39 19q4 1 5 4t-1.5 6t-6.5 2q-27 -5 -53 -29q-4 -3 -1 -7q1 -3 4 -4.5t7 -2t7 -0.5t7.5 0.5t6.5 0.5h4v0q0 -3 -0.5 -8.5
t-0.5 -8.5q0 -16 2 -20t6 -4q15 2 39 27q2 3 5 3t5 -1t5.5 -3t5.5 -3q9 -4 23 -5q19 -2 18 8q-1 7 -9.5 17t-9.5 13q39 10 47 22q2 4 -1 8zM394 513q-50 0 -64 27q-10 16 -7 37.5t19 32.5q3 2 2.5 5.5t-3 5.5t-6.5 0q-32 -22 -23 -75q4 -24 29.5 -35t52.5 -11v13zM462 647
q-3 2 -6.5 -0.5t-3.5 -5.5t4 -5q20 -12 27 -36.5t-2 -45.5q-1 -4 1.5 -6t6 -1.5t5.5 4.5q11 26 2 54t-34 42zM368 553l-1 1l-0.5 0.5l-0.5 0.5q-4 5 -9 0q-4 -4 0 -9t9 -5q3 0 4.5 2t1.5 4q0 5 -4 6zM411 568q0 6 -6 6q-7 0 -7 -6q0 -5 3 -8q4 -5 9 0q4 3 1 8zM459 572v-4
q0 -4 3.5 -6t6.5 0t3 6v4q0 6 -6.5 6t-6.5 -6zM472 604v0.5v0.5q0 4 -3 5.5t-6.5 0t-3.5 -5.5q1 -5 3 -9q5 -4 10 0q3 4 0 8zM389 533h-3q-4 0 -5.5 -3t0 -6.5t5.5 -3.5h3q3 0 5 3.5t0 6.5t-5 3zM707 570q-25 20 -44 48q-1 2 -4 6q-12 17 -19 26t-21.5 16.5t-30.5 4.5
q-7 -2 -17 -2.5t-16.5 -2t-13.5 -7.5q-45 -39 -51 -44q-2 -2 -1 -5.5t4 -4.5t7 1q5 5 16 13.5t16 12.5q2 2 7 7.5t8 8t8 5t10 2.5q4 0 16 2t18 2.5t14 -3.5q22 -17 35 -38q25 -37 53 -60q7 -5 -10.5 -16.5t-31.5 -18.5q-27 -14 -53 -13q-3 1 -6.5 -0.5t-3.5 -5.5v-1
q0 -6 6 -6q28 -2 58.5 11t50.5 34q13 14 -4 28zM640 553q-39 44 -75 104q-2 3 -5.5 3t-5.5 -3t0 -7q36 -60 77 -106q3 -3 6.5 -2t4.5 4.5t-2 6.5zM699 560q0 1 -2.5 0.5t-3.5 -0.5q-11 -2 -18 -3q-26 -5 -35 -5q-4 -1 -5.5 -4t0 -6t5.5 -3q11 0 38 5q3 1 10 1.5t12 2t8 3.5
q3 3 2 6t-4.5 4t-6.5 -1zM638 546q-2 0 -4.5 -3t-4.5 -3.5t-5 -3.5t-5 -4q-19 -8 -23 -9q-3 -2 -3 -5.5t3 -5.5t6.5 -0.5t22.5 9.5q2 1 5.5 4t5.5 3.5t4.5 3l3.5 3.5q4 3 4 6t-3.5 5t-6.5 0zM595 598q-5 0 -11 -5q-2 -4 -12 -2t-13 0q-3 -3 -14.5 -0.5t-14 2.5t-10 -2
t-13 -2t-7.5 5q1 8 -6 8h-1q-3 0 -5 -2.5t-1 -5.5q2 -11 16 -17q7 -3 16 0.5t14 2.5q4 0 10 -2t8 -2t10 2q1 2 11 1t11 -1q2 1 6.5 4t5.5 3q6 0 6 6.5t-6 6.5zM662 611q-11 0 -31.5 -3t-29.5 -4q-4 0 -5.5 -3.5t0 -6.5t5.5 -3q9 1 29.5 4t31.5 3q3 0 5 3t0 6.5t-5 3.5z
M759 451q-8 30 -27 52q-20 24 -41 27q-2 1 -3 1h-1q-6 1 -8 -4.5t3 -7.5q2 -2 5 -2q19 0 43 -32q14 -17 21 -55q6 -33 -12 -49q-6 -6 -16 -6t-22.5 2.5t-19.5 1.5q-16 -1 -23 -14q-6 -12 -6 -16q-1 -18 -18.5 -22.5t-26.5 8.5q-14 15 -34 14.5t-34 -13.5q-23 -21 -48 -21
q-12 0 -22.5 16t-19.5 18q-17 4 -41 -6q-18 -7 -28 -6q-19 3 -30 36q-6 18 -20 22q-8 3 -19 2q-19 -2 -28.5 7t-6.5 28q0 3 1.5 14t2.5 16t3.5 13t6.5 14q5 9 21.5 20t19.5 14t2 6.5t-4 4.5t-7 -2q-4 -4 -20.5 -15.5t-23.5 -21.5q-4 -6 -7 -15.5t-4 -16.5t-2.5 -19t-2.5 -16
q-2 -11 2.5 -24t13.5 -17t20 -5q3 0 6 0.5t7 1t6 0.5q7 1 11 -1t5.5 -4.5t3.5 -8t3 -7.5q1 -1 2 -3q5 -11 8 -16t10 -10.5t16 -8.5q13 -4 33.5 4t27.5 9q10 1 24.5 -16.5t24.5 -18.5q25 -4 44 11q47 37 71 8q13 -17 40 -6q8 3 17 12q5 4 7 16t7 17q4 10 30 4.5t34 -2.5
q22 9 29 31q1 5 1.5 9t0.5 8.5v7.5t-1.5 8t-2 7t-2 8.5t-2.5 8.5zM741 367q0 4 -3.5 5.5t-6.5 0t-3 -5.5q1 -20 6 -60t5 -52q0 -39 -7 -64q-3 -11 -9 -20t-16.5 -15.5t-16.5 -10.5t-23 -8t-20 -5t-22 -5q-51 -10 -124 -7q-19 1 -39 4.5t-46 9t-39 7.5q-37 6 -65.5 27.5
t-28.5 55.5q0 23 2 86t3 80q0 4 -3.5 5.5t-6.5 0t-3 -5.5q-1 -18 -2.5 -49t-2.5 -46.5t0 -33.5q1 -6 0 -33.5t4 -32.5q11 -24 36 -41.5t53 -24.5q22 -5 62 -12q59 -9 76 -10q69 -4 127 8q24 5 33 7t27 8.5t29.5 16t19.5 23.5q10 17 15 54q2 25 0.5 40.5t-6 50t-5.5 52.5z
M873 182q-2 12 -8.5 23t-13 18t-20.5 15t-20 10.5t-24.5 10t-21.5 8.5q-8 3 -14 4q-3 1 -5.5 -2t-2 -6.5t4.5 -3.5q8 -1 21 -8q5 -2 17 -6t18 -7q1 -1 4 -3q15 -8 22.5 -13t16.5 -15t13 -22q6 -22 -10 -51l-5 -11.5t-10 -17.5q-33 -31 -55 -40q-59 -23 -134 -23
q-15 0 -56.5 -3t-64.5 -1q-20 1 -89 2.5t-113.5 10t-82.5 32.5q-24 15 -59 47q-26 23 -15 75q7 32 58 51q3 1 10 4.5t12 5.5q25 7 27 7q4 1 4.5 4t-2 6t-6.5 3q-8 -2 -17 -5t-20.5 -8t-16.5 -7q-38 -14 -56 -41q-12 -17 -8 -59q2 -30 37 -60q73 -62 138 -68q12 -1 39.5 -4.5
t42.5 -4.5q10 -1 97 -3q5 0 31.5 -1.5t40.5 -0.5q8 0 36.5 2.5t44.5 2.5q15 0 77 11q44 8 73 24q30 17 50 51.5t15 66.5v0z" />
    <glyph glyph-name="jiubei" unicode="&#xe620;" 
d="M692 262q18 22 31 48v1l8 16q0 1 0.5 2.5l0.5 1.5q4 8 7 17q0 1 0.5 2t0.5 2q9 30 13 60v0.5v0.5v0q2 20 2 35q0 40 -6 109t-14 92h-446q-8 -23 -14 -92t-6 -109q0 -83 39.5 -151.5t104.5 -101.5h-1l9 -4.5t18 -11.5t22.5 -18.5t18 -23.5t8.5 -28v-85q0 -25 -77 -56
q-61 -24 -67 -31q-4 -5 2 -10h345q11 9 -21 22q-10 4 -34 13q-86 31 -97 52q-3 5 -3 10v85q0 11 4.5 21t11 18t14.5 15.5t16 13t14.5 9.5t11 6.5l4.5 2.5h-1h1h1q1 1 6 4q8 4 13 7l0.5 0.5l1.5 1.5q14 9 27 20l1 1l1 1l11 11l2.5 2.5t1.5 2.5q8 8 11 12q1 1 3 4zM317 448
q0 121 8 152h374q7 -30 7 -152q0 19 -1 19t-1 -2h-336q7 -65 33.5 -136.5t61.5 -101.5q-63 19 -104.5 80.5t-41.5 140.5z" />
    <glyph glyph-name="gouwuche" unicode="&#xe603;" 
d="M881 -23h-574v0v0q-19 0 -32 13t-13 31.5t13 31.5t32 13v0h568q15 0 18 14l127 506q2 9 -4 16t-15 7h-807l-27 109q0 1 -1.5 2t-1.5 2q-3 4 -4.5 5.5t-6.5 2.5q-1 0 -2 1t-2 1h-127q-7 0 -12.5 -5.5t-5.5 -13.5t5.5 -13.5t12.5 -5.5h112l150 -595q-22 -6 -35 -19
q-24 -24 -24 -58t24 -58q1 -2 4 -3.5t4 -2.5q-1 0 -4 -1.5t-4 -3.5q-24 -24 -24 -58t24 -58t58 -24v0q34 0 58 24t24 58q0 22 -15 45h440q-15 -23 -15 -45q0 -34 24 -58t58 -24v0q34 0 58 24t24 58t-24 58t-58 24v0zM860 104v0h-539l-85 341h710l-86 -341v0zM977 572v0
l-22 -89h-728l-22 89h772v0zM351 -105v0q0 -18 -13 -31t-31 -13v0q-19 0 -32 13t-13 31.5t13 31.5t32 13q18 0 31 -13t13 -32v0zM912 -136v0q-13 -13 -31 -13v0q-19 0 -32 13t-13 31.5t13 31.5t32 13q18 0 31 -13t13 -31.5t-13 -31.5z" />
    <glyph glyph-name="kuaican" unicode="&#xe604;" 
d="M340 704l4 42h16l9 -2l10 -393q-3 -13 13 -13q7 0 10 4t3 8v4l13 388q8 5 15 5l13 -3l14 -399q0 -1 1 -2.5t5 -4t10.5 -2.5t9.5 2.5t3 5.5v2l15 399q7 3 13 3l12 -2l12 -398q0 -2 1 -4t5.5 -5t11.5 -2t10 4t3 6v3l11 394l14 2l12 -2q14 -117 24 -235l18 -236
q-17 -20 -44 -40q-17 -12 -39 -26t-36 -22l-13 -8l-3 -388l-80 -1l-5 390q-52 32 -92 63q-11 9 -22 19t-17 16l-5 5z" />
    <glyph glyph-name="fenlei" unicode="&#xe605;" 
d="M0 726h1024v-170h-1024v170zM0 386h1024v-172h-1024v172zM0 44h1024v-170h-1024v170z" />
    <glyph glyph-name="aixin" unicode="&#xe614;" 
d="M750 708q-80 0 -145 -44.5t-93 -116.5q-29 72 -94 116.5t-145 44.5q-106 0 -181.5 -75t-75.5 -181q0 -116 94 -202l402 -391l244 235q63 57 110 106l47 44q43 40 68.5 94.5t25.5 113.5q0 106 -75.5 181t-181.5 75z" />
    <glyph glyph-name="mulu" unicode="&#xe606;" 
d="M888 756h-744q-26 0 -45 -19t-19 -45v-776q0 -27 18.5 -45.5t45.5 -18.5h744q27 0 45.5 18.5t18.5 45.5v776q0 27 -18.5 45.5t-45.5 18.5zM776 32h-520v104h520v-104zM776 256h-520v104h520v-104zM776 472h-520v104h520v-104z" />
    <glyph glyph-name="fenlei1" unicode="&#xe64b;" horiz-adv-x="1394" 
d="M1322 661h-976q-21 0 -36.5 16.5t-15.5 40t15.5 40t36.5 16.5h976q22 0 37.5 -16.5t15.5 -40t-15.5 -40t-37.5 -16.5v0zM1322 244h-976q-21 0 -36.5 16.5t-15.5 39.5t15.5 39.5t36.5 16.5h976q22 0 37.5 -16.5t15.5 -39.5t-15.5 -39.5t-37.5 -16.5v0zM1322 -174h-976
q-21 0 -36.5 16.5t-15.5 40t15.5 40t36.5 16.5h976q22 0 37.5 -16.5t15.5 -40t-15.5 -40t-37.5 -16.5v0zM0 -118q0 39 27.5 67t66.5 28t67 -28t28 -67t-28 -66.5t-67 -27.5t-66.5 27.5t-27.5 66.5v0zM0 296q0 39 27.5 66.5t66.5 27.5t67 -27.5t28 -67t-28 -67t-67 -27.5
t-66.5 27.5t-27.5 67.5v0zM0 718q0 39 27.5 66.5t66.5 27.5t67 -27.5t28 -66.5t-28 -67t-67 -28t-66.5 28t-27.5 67v0z" />
    <glyph glyph-name="xiayibu" unicode="&#xe643;" 
d="M678 397l-365 380q-11 10 -11 24.5t10.5 25t25 10.5t24.5 -10l401 -405q11 -10 11 -25t-11 -25l-401 -405q-10 -10 -24.5 -10t-25 10t-10.5 25t11 25l365 380v0z" />
    <glyph glyph-name="daokuai" unicode="&#xe71d;" 
d="M448 896h-32q-13 0 -22.5 -9.5t-9.5 -22.5v-480v0v-448q0 -26 19 -45t45 -19t45 19t19 45v384h128q0 77 -10.5 150.5t-27.5 129t-37.5 105t-41 84t-37.5 59t-28 36.5z" />
    <glyph glyph-name="gouwuche1" unicode="&#xe60a;" 
d="M867 189v0h-393q0 6 -2 9l-13 71h487l78 392h-642l-25 129q-4 14 -16.5 22t-26.5 7h-274q-17 0 -28.5 -11.5t-11.5 -28.5t11.5 -28.5t28.5 -11.5h243l109 -563q2 -5 8 -14q-45 -37 -45 -93q0 -49 34.5 -84t84 -35t84 35t34.5 84q0 14 -6 40h171q-7 -17 -7 -40
q0 -49 35 -84t84 -35t83.5 35t34.5 84q-1 50 -36 85t-84 35zM397 582h534l-46 -236h-442zM474 30q-17 0 -28.5 12t-11.5 28.5t11.5 28t28 11.5t28.5 -11.5t12 -28.5q-2 -16 -13.5 -28t-26.5 -12zM867 30q-17 0 -28.5 12t-11.5 28.5t11.5 28t28.5 11.5t28.5 -11.5t11.5 -28.5
q-1 -16 -12.5 -28t-27.5 -12z" />
    <glyph glyph-name="lazhu-copy" unicode="&#xe602;" 
d="M494 547q-27 14 -26 43q1 16 10.5 27t20.5 15t19.5 12.5t6.5 20.5q-1 7 3 5q11 -6 25 -46q19 -53 -1 -74q56 16 52 87q-2 37 -21.5 86t-41 82t-31.5 33q-4 0 -6 -3q-3 -5 1 -17q3 -10 3.5 -20t-1 -16.5t-7 -15t-9.5 -13t-13 -14.5q-13 -15 -21 -25t-18.5 -30.5
t-15.5 -43.5q-9 -41 11 -65q18 -23 60 -28zM714 -5h-68q1 6 1 12v423q0 20 -14 34t-34 14h-174q-20 0 -34 -14t-14 -34v-423q0 -6 2 -12h-69q-10 0 -17.5 -7.5t-7.5 -17.5v-7q0 -11 7.5 -18t17.5 -7h404q11 0 18 7t7 18v7q0 10 -7 17.5t-18 7.5zM463 188q0 -8 -5.5 -13.5
t-13.5 -5.5t-13.5 5.5t-5.5 13.5v224q0 8 5.5 13.5t13.5 5.5t13.5 -5.5t5.5 -13.5v-224z" />
    <glyph glyph-name="panzi" unicode="&#xe657;" 
d="M512 111q-113 0 -193 80t-80 193t80 193t193 80t193 -80t80 -193t-80 -193t-193 -80zM512 623q-99 0 -169 -70t-70 -169t70 -169t169 -70t169 70t70 169t-70 169t-169 70zM512 222q-67 0 -114.5 47.5t-47.5 114.5t47.5 114.5t114.5 47.5t114.5 -47.5t47.5 -114.5
t-47.5 -114.5t-114.5 -47.5zM512 512q-52 0 -90 -38t-38 -90t38 -90t90 -38t90 38t38 90t-38 90t-90 38z" />
    <glyph glyph-name="14tangguoqiaokeli" unicode="&#xe608;" 
d="M867 644q-5 19 -19 31.5t-25 15.5l-11 3q-7 24 -20.5 43t-29 30t-29.5 18.5t-23 9.5l-9 3q-12 24 -28 37t-25 13l-10 1q10 -119 14 -159q2 -18 -3.5 -27.5t-12.5 -10.5l-7 -1q-4 -1 -10.5 -1.5t-25 -1t-25.5 1.5q-69 8 -136.5 -15t-119.5 -75q-50 -51 -70.5 -114
t-9.5 -125v0l5 -19q1 -11 -5 -17.5t-12 -7.5l-6 -1q-79 -11 -109 -15q-13 -2 -18.5 -6.5t-4.5 -7.5l1 -3q-6 -59 52 -100q11 -5 22 2q6 4 28.5 17.5t42.5 25l20 11.5q-1 -1 -3.5 -2.5t-9 -5.5t-12.5 -7.5t-14.5 -9.5t-16 -11t-14.5 -11t-12 -10.5t-8 -9t-2 -7.5
q4 -19 18 -31.5t26 -15.5l11 -3q19 -69 94 -98l17 -5q25 -51 60 -51h3q-10 119 -15 158q-1 12 1 19.5t5.5 10.5t7 5t6.5 1.5t3 0.5v0l58 4q70 -10 140 13.5t123 75.5q56 57 75 130.5t-3 139.5q1 9 7 13t11 3h5q79 11 109 15q13 2 18 6t4 7l-1 3q7 60 -51 100v0q-10 6 -23 -2
l-91 -54q1 1 3.5 2.5t9 5t12.5 7.5t14.5 9.5t16 10.5t15 11t12.5 10.5t7.5 9t2.5 7.5z" />
    <glyph glyph-name="personal" unicode="&#xe613;" 
d="M870 19v0v0q-70 -70 -162.5 -108.5t-195.5 -38.5q-104 0 -199 40.5t-163.5 109t-109 163.5t-40.5 199t40.5 199t109 163.5t163.5 109t199 40.5t199 -40.5t163.5 -109t109 -163.5t40.5 -199q0 -105 -40.5 -199.5t-113.5 -165.5zM512 -55q154 0 275 97q-31 87 -106 141.5
t-169 54.5t-169 -54.5t-106 -141.5q121 -97 275 -97zM512 823q-89 0 -170.5 -35t-140 -93.5t-93.5 -140t-35 -170.5q0 -163 107 -286q44 96 133.5 154.5t198.5 58.5t198.5 -58.5t133.5 -154.5q107 123 107 286q0 89 -35 170.5t-93.5 140t-140 93.5t-170.5 35zM512 347
q-76 0 -129.5 54t-53.5 129.5t53.5 129t129.5 53.5t129.5 -53.5t53.5 -129t-53.5 -129.5t-129.5 -54zM512 640q-45 0 -77.5 -32t-32.5 -77.5t32.5 -77.5t77.5 -32t77.5 32t32.5 77.5t-32.5 77.5t-77.5 32z" />
    <glyph glyph-name="renqun-05" unicode="&#xe607;" 
d="M511 -104h-28q-31 0 -35 31q-6 53 -19 167q-20 183 -20 189q-1 8 -10 14q-32 20 -36 53q-15 131 -24 215q-3 32 18 57.5t53 29.5q18 2 36 0q7 -1 14 -8q8 -10 23.5 -29.5t16.5 -21.5q7 -8 11.5 -8.5t11.5 8.5t20.5 26t20.5 25q6 7 9 8q31 10 64.5 -6t43.5 -47
q7 -19 5 -37q-4 -40 -23 -209q-5 -39 -39 -56q-9 -4 -10 -16q-4 -37 -11.5 -104.5t-9.5 -88.5q-1 -10 -7.5 -70t-9.5 -91q-4 -31 -36 -31h-29zM727 514q26 -32 28 -35q9 -11 18 0q27 34 34 42t19 9q44 4 68 -24q19 -22 16 -49q-11 -106 -20 -184q-4 -27 -29 -40
q-11 -6 -12 -17q-5 -51 -15.5 -148t-15.5 -140q-2 -19 -9.5 -26t-25.5 -7h-43q-27 1 -30 27q-4 41 -12.5 117.5t-9.5 90.5q-2 10 -5 40t-5 47q-1 11 -10 16q-12 7 -12.5 17t10.5 19q36 31 42 78q1 14 19 167zM298 515q18 -154 20 -170q5 -44 39 -74q11 -10 10 -21t-14 -19
q-7 -4 -7 -11q-19 -162 -31 -276q-3 -33 -11 -41.5t-42 -6.5h-13h-13q-27 0 -30 26q-5 44 -19 168q-13 126 -14 131q-1 6 -8 11q-27 16 -31 48q-3 23 -9.5 81t-10.5 90q-3 33 17 55t54 24q28 1 40 -20q3 -5 7 -10t9.5 -11t7.5 -9q10 -13 20 -1q2 3 29 36zM512.5 679
q-40.5 0 -69 28.5t-28.5 68.5t28.5 68.5t67.5 28.5q41 0 70 -28.5t29 -68.5t-28.5 -68.5t-69 -28.5zM846 640q0 -41 -32 -65t-71 -13q-11 3 -11 13q-1 50 -37 86q-7 7 -1 18q12 24 38.5 35.5t53.5 4.5t44 -29t16 -50zM259 559q-29 0 -52 19.5t-27.5 48.5t10.5 54.5
t42.5 35.5t55.5 -0.5t43 -35.5q7 -13 -3 -22q-31 -30 -35 -75q-1 -15 -5 -19t-20 -6h-9z" />
    <glyph glyph-name="shu" unicode="&#xe612;" 
d="M608 176q-37 -22 -51 -62.5t2 -79.5l-27 -15v228l43 25q26 -33 68 -41.5t80 13.5q24 14 62 69t63.5 101.5t25.5 48.5q-24 1 -60.5 2t-109 -4t-96.5 -19q-37 -21 -51 -62t2 -80l-27 -15v182q51 7 84.5 45.5t33.5 90.5q0 34 -34.5 106t-69 129t-34.5 55q-6 -9 -15 -24
t-33 -56t-42 -76t-33 -74t-15 -60q0 -52 33.5 -90.5t84.5 -45.5v-182l-27 15q16 39 2 80t-51 62q-52 30 -261 22l-5 -1v0q11 -21 28.5 -53t58 -92t64.5 -74q38 -22 80 -13.5t68 41.5l43 -25v-228l-27 15q16 39 2 79.5t-51 62.5q-57 29 -266 21q11 -21 28.5 -53.5t58 -92.5
t64.5 -74q38 -22 80 -13.5t68 41.5l43 -24v-109h40v109l43 24q27 -33 68.5 -41.5t79.5 13.5q24 14 62 69.5t63.5 102t25.5 48.5q-24 1 -60.5 2t-109 -4t-96.5 -19zM587.5 364q8.5 32 37.5 48q32 19 171 19q10 0 21 -1q-34 -61 -65 -104.5t-47 -52.5q-18 -10 -39.5 -10
t-40 10.5t-29.5 29.5q-17 29 -8.5 61zM428 303q-11 -19 -29.5 -29.5t-40 -10.5t-39.5 10q-16 9 -47 52.5t-65 104.5q11 1 21 1q139 0 171 -19q29 -16 37.5 -48t-8.5 -61zM428 36q-11 -18 -29.5 -29t-40 -11t-39.5 11q-16 9 -47 52t-65 105h21q139 0 171 -18q29 -17 37.5 -49
t-8.5 -61zM512 506q-40 0 -68.5 28.5t-28.5 68.5q0 48 97 211q97 -163 97 -211q0 -40 -28.5 -68.5t-68.5 -28.5zM817 164q-34 -62 -65 -105t-47 -52q-18 -11 -39.5 -11t-40 11t-29.5 29q-17 29 -8.5 61t37.5 49q32 18 171 18h21z" />
    <glyph glyph-name="zuichun" unicode="&#xe63c;" horiz-adv-x="1038" 
d="M1039 332q-7 -39 -88 -84t-202 -76.5t-229 -31.5q-140 0 -298.5 63.5t-205.5 118.5q20 31 51 50t81 39.5t80 37.5q81 75 154 75q31 0 58 -15q11 -7 20.5 -13t14.5 -9t8.5 -6t5.5 -3.5t4 -0.5t12 3q21 6 24 6q5 0 19 -6q9 -4 12 -4q2 0 4 1t6 3.5t9 6t14.5 9.5t20.5 13
q27 15 58 15q14 0 27.5 -3.5t30 -12t27.5 -15t34 -22t35 -22.5q36 -24 76.5 -41.5t66 -25t45.5 -20t25 -30.5zM724 366q-2 1 -10.5 7.5t-13 9t-12.5 6.5t-16 5.5t-17 1.5q-15 0 -35 -4.5t-38 -10t-22 -6.5q-32 -4 -35 -4t-32 4q-3 1 -21 6.5t-38 10t-35 4.5q-9 0 -17 -1.5
t-16 -6t-12.5 -6.5t-13 -8.5t-10.5 -7.5q-5 -3 -15.5 -10t-21.5 -13.5t-22 -10.5h33.5h34.5q4 1 121 0.5t134 -0.5q2 0 90 1t99 -1q-10 4 -21 10.5t-22.5 14t-15.5 9.5z" />
    <glyph glyph-name="dangao" unicode="&#xe5f0;" 
d="M642 664h38q7 0 12.5 5.5t5.5 13.5v37q0 8 -5.5 13.5t-12.5 5.5h-38q-7 0 -12.5 -5.5t-5.5 -13.5v-37q0 -8 5.5 -13.5t12.5 -5.5zM494 664h37q7 0 12.5 5.5t5.5 13.5v37q0 8 -5.5 13.5t-12.5 5.5h-37q-8 0 -13.5 -5.5t-5.5 -13.5v-37q0 -8 5.5 -13.5t13.5 -5.5zM345 664
h37q8 0 13.5 5.5t5.5 13.5v37q0 8 -5.5 13.5t-13.5 5.5h-37q-8 0 -13.5 -5.5t-5.5 -13.5v-37q0 -8 5.5 -13.5t13.5 -5.5zM313 365q27 -17 53 -17t53 17q2 2 15.5 11.5t21.5 14t23.5 9t32 4.5t32.5 -4.5t24 -9t21 -14t16 -11.5q27 -17 53 -17q28 0 53 15q38 25 93 25
q23 0 43 -6v78q-1 21 -20 38.5t-36 17.5h-93v111h-74v-111h-74v111h-75v-111h-74v111h-75v-111h-92q-29 -2 -42.5 -19.5t-13.5 -36.5l-1 -78q20 6 43 6q58 0 93 -23zM891 88h-44v221q-19 11 -43 11q-26 0 -53 -17q-46 -30 -93 -30q-25 0 -48 14.5t-47 28.5t-51 14t-51 -14
t-47 -28.5t-48 -14.5q-47 0 -93 30q-27 17 -53 17q-24 0 -43 -11v-221h-44q-15 0 -26 -11t-11 -26.5t11 -26.5t26 -11h758q15 0 26 11t11 26.5t-11 26.5t-26 11z" />
    <glyph glyph-name="fanhui" unicode="&#xf0343;" 
d="M533 -9l-393 393l393 393q9 9 9 22.5t-9.5 23t-23 9.5t-22.5 -9l-412 -412q-11 -11 -9 -26q-2 -16 9 -28l412 -412q9 -9 22.5 -9t23 9.5t9.5 23t-9 22.5z" />
    <glyph glyph-name="shouye" unicode="&#xe501;" 
d="M633 785q0 -4 3.5 -4t3.5 4t-3.5 4t-3.5 -4zM306 742l-4 -5h3q3 -1 4.5 0.5t1.5 5.5l-1 3zM412 741q1 -4 5 -4h3l-1 3q-6 6 -7 1zM565 742q-3 -2 -1.5 -2t4.5 2t1.5 2t-4.5 -2zM262 522l-4 -4l3 -1q4 0 5 1.5t1 4.5v4zM245 509q-1 -1 -2 -3q-1 -1 0 -1q1 -1 5 3q5 5 3 5
t-6 -4zM231 495q-2 -2 -2 -3q-2 -2 -1 -2q1 -1 5 3q5 5 3 5t-5 -3zM218 484q-3 -2 -5 -5.5t-1 -4.5l1 1q0 2 3.5 5.5t5 3.5t1.5 1q0 2 -5 -1zM939 485q0 -1 2.5 -2t5.5 -5.5t3 -1.5t-3 7q-8 8 -8 2zM200 469q-3 -3 -3 -5h1q1 2 5.5 5t2 3t-5.5 -3zM942.5 379.5
q-2.5 -4.5 -2.5 -6.5l2 2q1 4 3.5 6.5t1 2.5t-4 -4.5zM180 323q0 -1 1 -3.5t3 -3.5t2 0q1 1 -0.5 1t-3.5 4.5t-2 1.5zM632 785q0 -2 1 -3v6q-1 -2 -1 -3zM566.5 748q-2.5 -4 -4.5 -3h-0.5t0.5 -1t-2 -2v-1q3 0 6.5 3.5t3 5.5t-3 -2zM593 749q-4 -4 4 -7q6 -3 6 -2l-3 2
q-1 0 -2 1t-0.5 1.5t0 0.5h-1.5t-1.5 0.5t-0.5 1.5zM802 631v-1l3 -3v3v0l-1 2q-1 -1 -1 0.5t-1.5 1.5t0.5 -3zM738 608q2 -2 4 -2l-1 2q-2 2 -4 2zM752 594q3 -2 4 -2v2q-2 2 -4 2v-2zM370 585q0 -1 1.5 -2.5l2.5 -2.5t2 0v1q-2 -1 -3.5 1t-0.5 3.5t-0.5 1.5t-1.5 -2z
M861 571l3 -2q0 1 -1 3t-2 2t0 -3zM901 528q0 -1 0.5 -1.5t1 0t1 0t0.5 -1.5q0 -2 2 -3.5t2 0.5t-2 5q-5 7 -5 1zM917 513q3 -3 2 -5h1q2 1 1 -1.5t0 -3.5l1 3q-1 6 -3 8q-4 2 -4.5 1.5t2.5 -2.5zM248 505l-1 -2h2q3 0 3.5 2.5t-1 2.5t-3.5 -3zM925 499.5q1 -1.5 2 -1.5
t3.5 -2t2.5 -3h-2h-1q3 -2 6 -1q0 2 -4 5.5t-6 3.5t-1 -1.5zM234 491q-1 -2 -1 -2.5t2 -0.5q2 1 2.5 3.5t-0.5 2.5t-3 -3zM939 483q1 -4 2.5 -4t2.5 -3q1 -4 3 -2q1 0 0 2q0 2 -5 6l-4 2zM218 478.5q-4 -3.5 -3 -4.5t5 3t3 4.5t-5 -3zM202 465q-2 -1 -3 -2q-1 -2 0 -2
q1 -1 5 3q5 5 3 5t-5 -4zM186 453.5q-4 -3.5 -4 -4.5q0 -2 1.5 -2.5t2.5 0.5t0.5 1h-0.5h-2q0 2 3 4t3 1v-1h1q2 1 1 2.5t1 1.5l-1 1q-2 0 -6 -3.5zM948 382q-7 -3 -4 -8q1 -3 4 2q1 2 0 3q-1 2 1.5 2t1.5 -1v-1.5t1 0.5t0.5 2t1.5 2l-1 1q-2 0 -5 -2zM344 368q4 -3 4 -4.5
t2 -2.5v1q-1 1 0.5 1.5t0.5 3.5t-3.5 2t-2.5 0.5t-2.5 1.5t1.5 -3zM810 366q-2 -5 0 -5t1 1t1.5 3.5t1 3t-3.5 -2.5zM181 324q3 -9 11 -8q2 0 2 3l-1 -1q-2 -2 -2.5 0t-3 1t-1.5 2v0q-2 -1 -3 1q-1 3 -0.5 3.5t2.5 -0.5h1q-2 4 -4 2q-2 -1 -1 -3zM795 114q-3 -6 0 -6
q2 0 1 2.5t1 3.5t0.5 1.5t-2.5 -1.5zM488 764q0 -4 -1 -4.5t-6 -0.5h-8v-14h-14v-15h-15v-15h-15v-14h-14v-15h-15v-15h-15v-7q0 -7 -1 -7t-1 25q0 31 -2 32t-7 1q-3 0 -4 1t-1 4v7t-7 2.5t-7 2.5q-1 3 -2 8l-1 4l-32 1q-27 0 -32 -1.5t-5 -8.5v-5h-15v-7q0 -8 -2 -8
q-11 -2 -10 -6q1 -1 -0.5 -1t-1.5 -91v-92h-15v-14h-14v-15h-15v-7l-1 -7l-14 -1v-7v-7h-7q-7 -1 -7 -5q-2 -10 -9 -10q-5 0 -6 -3q-1 -2 -5.5 -7t-6.5 -5q-3 0 -3 -1t-2 -4l-1 -1l-1 2q-1 0 -3 -3t-1 -4l-2 -2q-4 -3 -4 -9q0 -5 -0.5 -6t-4.5 -1h-4v-86h4q4 0 4.5 -1
t0.5 -6q0 -8 1 -8t4 -2v-1h-2v-2q1 -2 1 -3l2 1q1 2 1 -1q0 -1 0.5 -1.5t0.5 0.5q2 0 2.5 -1.5t2 0.5t1.5 0q0 -3 8.5 -3.5t46.5 -0.5h48v-96q0 -96 2 -99q1 -1 -1 -1v-2l1 -1q-1 0 1 -2.5t3 -0.5h1q0 -1 3 -1.5t3.5 -2t1.5 -11.5q0 -11 1.5 -13.5t8.5 -2.5q3 0 3.5 -1
t0.5 -6t2 -7t9 -2q4 0 4 -4v-3h481v3q0 4 3 4q7 0 9 2.5t3 10.5l1 2q1 0 6.5 1t5.5 2l1 13q1 12 1 13t3.5 1.5t3.5 1.5t1.5 1t0.5 -2h1q3 4 3 107v96h46h11q34 0 39.5 0.5t5.5 5.5q1 1 1 2q0 5 1 5.5t6 0.5q8 1 8 11q0 4 4 4h3v86h-3q-4 0 -4 6q0 5 -2 7t-7 2h-6v7v7h-7
q-5 0 -6 1t-2 5q0 6 -0.5 7t-3.5 2q-3 0 -6.5 3t-3.5 7q-1 3 -5 9t-6 6t-4.5 3.5t-2.5 5t-3.5 5t-5.5 3.5t-5 5l-1 3v2q-2 2 -4 1l-0.5 0.5t-0.5 1t-1 1.5t-3 1q-3 1 -4 2t0 2q1 2 -2 4l-1 2q2 -1 2 0t-3 3t-5 2q-5 0 -6 7q0 3 -2 5q-3 2 -4 1l-3 1q-5 3 -5 4q0 4 -2 8
q-2 3 -3.5 2t-2.5 0.5t-4 1.5t-3 4t-2 4v2q2 2 -1 2t-4 1.5t-3 0.5q-2 0 -3 1t-1 6q-1 5 -2.5 6t-6.5 2q-4 1 -5 2t-1 5q1 6 -7 7q-5 1 -6 1.5t-1 5.5l-2 3l-1 2v2h-1h-1q-1 2 -5 2q-3 0 -3.5 0.5t-1.5 6.5l-1 6h-1h-2t-4 1q-6 1 -7 8q-1 6 -2 6h-4q-7 1 -9 8q0 6 -1.5 6.5
t-5.5 0.5q-7 1 -7 7q0 5 -3 7t-5 1q-3 -1 -4.5 1.5t-1.5 6.5q0 5 -9 7q-6 1 -6 8q0 5 -7 6q-11 1 -22 3q8 -1 11.5 -1t3.5 1.5v3.5q-1 8 -11 8q-3 0 -4 6q0 6 -1.5 7.5t-8.5 1.5q-4 0 -4 6q-1 6 -2.5 7t-8.5 1q-3 1 -4 7q0 3 -3 6.5t-4 1.5h-11h-10v9h-101v-4zM550 729v-1
q1 0 1.5 -0.5t0.5 -1.5q0 -3 6.5 -6t13.5 -3q4 0 4 -3t1 -3v-1q-2 -2 0.5 -2.5t1.5 -2.5l3 -1q8 0 8 -6q0 -5 2.5 -5.5t1.5 -2.5l3 -1q8 0 8 -6q1 -4 2 -4t1 -2.5t4 -2.5q7 0 8 -6q0 -4 1 -4t1 -2t6 -3q8 -1 6 -10q0 -4 9 -4q7 -1 6 -10q0 -4 9 -5q5 0 5.5 -2.5t0.5 -5.5
q0 -6 10 -6q6 -1 4 -11q0 -1 5 -3t7 -1q2 0 2.5 -1t0.5 -5q0 -6 1.5 -5.5t2.5 -1.5t5.5 -2t5 -5.5t2 -5.5t2.5 -1.5t5 -2t4.5 -6t3 -7t10.5 -2.5q2 0 2 -4.5t1.5 -5.5t0.5 -2q-1 0 0 -0.5t2 -1.5h5.5t3 -0.5t1.5 -4.5t1.5 -5t0.5 -2l6 -3q5 0 6 -1t1 -4q0 -4 1.5 -5t0.5 -2
q0 -1 0.5 -1.5t1.5 -0.5q3 0 4.5 -0.5t3.5 -0.5t2 -6q0 -4 2.5 -6.5t6.5 -1.5q6 0 6 -7q0 -5 2 -6t11 -2q2 0 2 -6q0 -5 2 -6.5t10 -2.5q2 0 2 -6q0 -5 2.5 -6.5t9.5 -1.5q3 -1 3 -6q0 -9 10 -9q5 0 5 -4q0 -10 9 -10q4 -1 4.5 -1.5t0.5 -6.5q1 -6 3 -6t3.5 -0.5t5 -0.5
t3.5 -7v-6l14 -2v-7q0 -5 2 -6.5t8 -1.5h5v-9q0 -10 -1.5 -10t-0.5 -1t-1 -2l-1 -1l0.5 1t0.5 1.5t-1 0.5q-2 -1 -5 -6l-3 -4h-60q-59 -1 -61 -1t-6 -1l-2 -1q1 -1 -1.5 -3t-1.5 -3.5t-0.5 -1.5t-1.5 -120v-120h-3q-4 0 -6.5 -1.5t-1.5 -3.5t-1 -2t-1 -3q1 -1 -0.5 -2
t-3.5 -1h-6q-1 0 -3.5 -2.5t-2.5 -4v-4.5v-3h-75v117q0 117 -1 121q-1 8 -3 9.5t-59 1.5t-112.5 -1t-55 -2.5t-1 -1.5t-1.5 -122v-122h-44q-36 0 -41 0.5t-5 7.5q0 6 -11 7q-4 0 -4.5 4t-2.5 6q-3 2 -3 1l-3 1l-4 2v112q0 111 -1 117t-1 8.5t-1 3.5l-1 -1q1 -2 -0.5 -1
t0.5 4v1q-1 -1 -5.5 1.5t-6.5 2.5h-66l-64 1v30h5q5 0 6.5 2t2.5 8q1 4 2 4.5t4 1.5q6 0 7 1t1 6q0 4 1 5t5 2q7 2 9 10q0 3 1 3.5t6 1.5q5 0 6 1t1.5 6.5t1 6t6 1t6.5 1.5t1.5 6t1 5.5t5.5 1.5t6 2t2 6t1.5 5.5t5.5 1t6 1.5t1.5 6t1.5 6t5.5 1.5t6 1.5t1.5 6t1 6t6 1t6 1.5
t1.5 6.5t2.5 6t9 1q2 0 2 2q1 1 1.5 78t0.5 93q0 2 8 2h8v-59v-61t1.5 -2t0.5 -1.5t0.5 -3t4.5 -2.5t7 -1q12 0 12 8q0 3 1 3.5t6 1.5q9 0 9 11q0 3 5 3t7.5 2.5t2.5 7.5q0 3 0.5 4t4.5 1q10 0 10 9q0 4 0.5 4.5t4.5 0.5q5 0 7 2.5t2 7.5q0 4 1 4.5t4 0.5q10 0 10 10
q0 3 0.5 4t4.5 1q10 0 10 9q0 4 0.5 4.5t4.5 0.5q9 0 9 10q0 3 1 4t4 1q10 0 10 10q0 3 0.5 4t4.5 1q9 0 9 9q0 4 1 4.5t4 0.5q10 0 10 10q0 3 1 4t5 1q6 0 8 2t3.5 2t5.5 5q6 8 22 6q3 -2 4 -3zM620 289v-4v-1h1t1 -2.5t4 -2.5q6 0 7 -4q1 -8 1 -100v-103h-177v206l5 1
q5 1 6 1t2 6l2 7h148v-4zM247 508q-3 -4 -2.5 -5t4.5 3zM931 498q4 -4 5 -3t-5 5l-2 1q0 -1 2 -3zM233 493q-4 -4 -3 -5t5 3zM216 480q-1 -2 -2 -3t-1 -2q2 0 6 4q4 5 2 5t-5 -4zM203 469q-3 -2 -5 -5.5t0 -4.5v1q0 2 3.5 5.5t5.5 3.5t2 1q0 2 -6 -1zM185 454q-3 -3 -2 -3
t4 3t1.5 3t-3.5 -3zM173 342q2 -1 5 0q-2 1 -3 1z" />
    <glyph glyph-name="xuehua" unicode="&#xe631;" 
d="M949 621v-6l-1 -2q-2 -14 -17 -23q-9 -5 -49 -28l-5 -3l4 -2q31 -8 32 -9q11 -3 17 -14t2 -23q-3 -12 -13 -18t-22 -4q-5 2 -53 14q-2 1 -39 11q1 -3 4 -4q50 -34 65 -44q15 -9 15 -25q1 -18 -14 -28q-16 -9 -32 1q-4 2 -31 20l-30 20t-37 24q-4 3 -6 0q15 -17 16 -18
q11 -12 8 -27q-4 -19 -22 -23q-17 -5 -30 8q-15 15 -24 25q-4 4 -8 1q-2 -1 -45 -26l-4 -2q0 -1 1 -2h5h34q12 0 20.5 -9t8.5 -21.5t-8.5 -21.5t-20.5 -9h-17.5h-17.5h-5q2 -3 4 -4q40 -23 44 -26q5 -3 9 2q12 13 25 25q17 17 37 5q9 -6 13 -16t0 -19q-2 -5 -12 -18
q0 -1 -12 -13l0.5 -0.5t0.5 -1.5l6 3q55 35 95 62q15 10 30 4q17 -7 19 -25t-14 -29q-10 -7 -21 -14t-24.5 -16t-20.5 -14l-4 -3q2 -1 5 0q74 20 84 22q7 2 11 2q11 -1 19.5 -9t8.5 -19q1 -11 -5 -20.5t-18 -12.5q-5 -1 -14.5 -3.5t-12.5 -3.5l-7 -2l6 -4q38 -21 50 -28
q13 -8 16 -22l1 -3v-6l-1 -1q-2 -17 -17 -23.5t-31 2.5q-4 3 -48 28q-1 0 -6 3l1 -6q6 -21 7 -27q3 -10 0 -19q-7 -21 -30 -21q-23 1 -29 24q-4 16 -12 45.5t-10 38.5l-2 6l-1 -3q-5 -72 -5 -83q-1 -12 -10 -21t-21 -9q-13 1 -21.5 9.5t-8.5 21.5q0 10 1 29q1 12 3 42.5
t3 47.5l-2 5h-1.5h-0.5q-6 -21 -7 -23q-3 -10 -11 -17q-17 -12 -35 0q-18 11 -13 32q4 14 10 36q2 5 -2 7q-1 0 -47 27l-5 2q3 -6 4 -6q14 -26 15 -28q5 -9 5 -16q1 -10 -5 -18.5t-16 -11.5q-23 -7 -35 13l-18 30l-3 5v-3q-1 -54 -1 -56q0 -4 5 -5q30 -7 36 -9q11 -3 17 -13
t4 -22q-2 -11 -10.5 -18t-19.5 -7q-2 1 -19 4q-1 0 -12 3q0 -1 -1 -2l5 -4q18 -10 52 -27l50 -25q24 -12 17 -36q-4 -14 -17 -19.5t-27 0.5l-70 35q0 1 -5 3q0 -3 3 -6l61 -61q9 -10 9 -22t-9 -21.5t-21.5 -9.5t-21.5 10q-4 4 -11.5 11t-8.5 9q-1 0 -6 4v-6v-58
q0 -25 -22 -31l-6 -2h-5l-1 1q-15 4 -21 12t-6 24v54v6l-5 -4l-21 -21q-11 -11 -26.5 -8t-22.5 16q-10 20 7 37q12 12 33.5 33t27.5 28l3 4q-2 0 -6 -2l-70 -35q-11 -5 -22 -2.5t-17 12.5q-8 12 -4.5 25.5t16.5 19.5q6 3 87 44q14 7 17 8q0 1 3 5l-0.5 0.5l-0.5 0.5
q-19 -5 -20 -5q-12 -2 -17 -1q-11 2 -17.5 10.5t-6.5 18.5q-1 11 6 19.5t17 11.5q18 4 34 8q5 1 5 6v53l-1 5l-3 -5q0 -1 -6.5 -12t-10.5 -17q-10 -17 -28 -15q-18 1 -25.5 16t1.5 30q2 5 5 9.5t6 10.5t5 9l3 4q-3 1 -5 -1q-42 -24 -46 -26t-3 -7q6 -20 10 -35q3 -12 -3 -23
t-18 -14.5t-23 2.5t-15 19q-1 2 -2.5 8.5t-2.5 10.5l-3 4q-2 -5 -2 -6q0 -5 1 -29l3 -40q2 -43 2 -50q1 -12 -8 -20.5t-21 -9.5q-12 0 -21.5 8.5t-9.5 19.5q-1 8 -2 27t-1 30q-1 1 -3 29l-0.5 0.5l-0.5 0.5q-5 -18 -5 -19q-19 -69 -19 -72q-4 -12 -14.5 -18t-22.5 -3
t-18.5 13.5t-3.5 22.5l3 15q1 1 6 21l-6 -3q-50 -28 -51 -29q-14 -8 -28 -2t-17 22q-1 0 -2 3v6l1 2q3 15 18 23q9 5 48 28q1 1 6 4l-4 1q-31 9 -33 9q-11 4 -16.5 14.5t-2.5 22.5t13.5 18.5t21.5 3.5q6 -1 53 -14q3 -1 39 -10q-1 2 -4 4q-50 33 -65 43q-14 10 -15 25
q-1 19 15 28q16 10 32 0q4 -3 33 -22q7 -5 29.5 -20l34.5 -23q5 -3 7 1l-17 17q-11 12 -8 28q4 18 21.5 23t30.5 -8q15 -15 25 -26q3 -4 8 -1q1 1 45 26l3 3v1h-6h-33q-12 0 -21 9t-9 21.5t9 21.5t21 9h17h17l5 1q-1 2 -3 3q-42 24 -45 26q-5 3 -8 -1l-26 -26
q-16 -16 -37 -4q-19 11 -13 34q2 8 12 18q1 1 12 13l-0.5 1l-0.5 1l-6 -2q-56 -37 -95 -63q-15 -10 -30 -4q-17 7 -19 25q-2 19 14 30q13 8 38 24.5t29 19.5l4 3q-3 0 -6 -1q-74 -20 -83 -22q-7 -2 -12 -1q-11 1 -19 8.5t-9 18.5q-1 12 5.5 21t17.5 12q5 2 14.5 4.5
t12.5 2.5q1 0 7 3l-6 3q-36 21 -50 29q-13 8 -16 22l-1 2v6l1 2q2 16 17.5 23t31.5 -3q4 -2 47 -27q1 -1 7 -4q-2 6 -2 7q-5 20 -7 26q-3 10 0 19q7 22 31 21q22 0 28 -23q5 -17 13 -47.5t10 -37.5l2 -5l1 2q0 7 1 25.5t2 28.5q2 29 2 33q2 12 11.5 19.5t20.5 6.5
q13 -1 21 -9.5t8 -21.5q-1 -12 -3 -45q0 -7 -1 -21t-1 -18q-2 -22 -2 -35l2 -4l2 3q2 4 3.5 10.5t2.5 9.5q4 12 15 18t23 3q12 -4 18 -15t3 -23q-3 -11 -10 -35q-1 -4 3 -6q7 -4 14.5 -8.5t17 -10t15.5 -8.5l3 -2v2q-16 28 -18 31q-4 9 -5 16q0 11 6 19t16 11q22 7 35 -13
l17 -30l3 -5l1 4v55t-4 5q-30 7 -37 9q-12 4 -18 15.5t-2 23.5t15 17.5t24 2.5q1 0 21 -5l1 1l-3 4l-24 12l-80 40q-24 12 -16 37q4 14 17 19.5t27 -1.5l70 -35l5 -2q-1 2 -4 5l-61 61q-9 10 -9 22.5t9 21.5t21.5 9t22.5 -10q4 -3 10.5 -9.5t8.5 -9.5l6 -5v7v57q0 25 22 31
q1 0 6 2h5q1 -1 2 -1q14 -4 20 -12t6 -23q0 -47 1 -55v-5h1l24 24q13 13 30 8t21 -22t-8 -30l-61 -61l-4 -4q0 -1 1 -1l5 2q55 28 69 35q11 5 22 3q21 -5 23 -24q4 -23 -16 -33q-2 -1 -30 -16q-57 -28 -73 -36q-1 0 -5 -5q1 0 1 -1q19 4 20 5q12 1 18 0q10 -2 17 -10t7 -19
t-7 -19.5t-18 -10.5q-20 -6 -33 -9q-5 -1 -5 -5q1 -11 1 -31.5v-22.5v-5q3 5 3 6q16 27 17 29q11 17 30 14q17 -2 24 -16.5t-1 -29.5q-4 -6 -9.5 -16t-7.5 -13l-2 -5l2 1q46 26 49.5 28t1.5 7q-8 30 -10 35q-5 21 13 33q13 9 27.5 3t19.5 -22q0 -1 6 -21l0.5 -0.5t1.5 -0.5
l2 5q0 2 -0.5 3.5t-0.5 3.5v3q-1 18 -2 43q-4 60 -4 67q-1 12 7 20t20 10q11 1 20.5 -5.5t12.5 -17.5q1 -5 2 -20q0 -11 1.5 -31.5t1.5 -28.5q0 -1 1 -11q3 6 6 18q19 68 20 73q6 22 32 21q9 0 17 -7t10 -17q1 -7 -2 -19q0 -3 -8 -30l6 3q50 29 52 30q14 8 27.5 1.5
t17.5 -22.5z" />
    <glyph glyph-name="huawen" unicode="&#xe51e;" 
d="M978 462q-2 15 -16 25q-9 7 -21.5 6t-19.5 -10q-12 -14 -3 -30q7 -11 8 -15q7 -20 -1 -36q-9 -19 -32.5 -30t-49.5 -12q-16 -1 -32.5 1t-25.5 5l-8 2q-33 4 -201 70q-60 23 -81 30q-166 57 -266 -11q-41 -28 -65 -64q-52 -14 -86 -44q-15 -14 -24 -30q-12 -21 -9 -42
q2 -16 16 -25q9 -7 21.5 -6.5t19.5 9.5q12 14 3 30q-7 12 -8 15q-7 20 1 37q9 19 32.5 29.5t49.5 11.5q16 1 32.5 -1t25.5 -4l8 -2q33 -5 201 -70q60 -23 81 -31q166 -56 266 12q41 27 65 64q52 13 86 44q15 14 24 29q12 21 9 43zM767 286q-62 -28 -152 -3q-41 11 -95.5 31
t-98.5 37.5t-50 19.5q-55 18 -97 25.5t-84 1.5q-3 0 1.5 7.5t17 19t28.5 19.5q50 27 99 25q35 -1 103.5 -23t140 -50t72.5 -28q112 -37 184 -27q3 0 -2.5 -8.5t-23.5 -22t-43 -24.5z" />
  </font>
</defs>
</svg>
